<svg aria-hidden="true" style="position: absolute; width: 0; height: 0; overflow: hidden;" version="1.1" xmlns="http://www.w3.org/2000/svg" xmlns:xlink="http://www.w3.org/1999/xlink">
<defs>
<symbol id="icon-cart" viewBox="0 0 32 32">
<title>cart</title>
<path class="fil0" d="M23.86 24.25c-1.66,0 -3.02,1.36 -3.02,3.02 0,1.67 1.36,3.02 3.02,3.02 1.67,0 3.03,-1.35 3.03,-3.02 0,-1.66 -1.36,-3.02 -3.03,-3.02z"/>
<path class="fil0" d="M12.99 24.25c-1.67,0 -3.03,1.36 -3.03,3.02 0,1.67 1.36,3.02 3.03,3.02 1.66,0 3.02,-1.35 3.02,-3.02 0,-1.66 -1.36,-3.02 -3.02,-3.02z"/>
<path class="fil0" d="M1.73 0.08c-1,0.1 -1.73,1 -1.62,2 0.1,1 1,1.73 2,1.62 1.33,0 1.93,0.32 2.3,0.65 0.37,0.32 0.62,0.78 0.76,1.51 0.45,2.41 2.04,10.27 2.41,12.12 0.65,3.16 3.56,5.06 6.62,5.06l9.66 0c1.18,0 1.57,-0.55 1.97,-0.94 0.4,-0.39 0.74,-0.82 1.09,-1.32 0.71,-1.01 1.44,-2.27 2.12,-3.52 1.36,-2.48 2.49,-4.94 2.49,-4.94 0.4,-0.6 0.41,-1.37 0.04,-1.98 -0.39,-0.6 -1.09,-0.93 -1.8,-0.83 -0.71,0.1 -1.29,0.6 -1.49,1.29 0,0 -1.12,2.37 -2.41,4.73 -0.65,1.17 -1.36,2.32 -1.93,3.13 -0.25,0.36 -0.46,0.6 -0.6,0.76l-9.14 0c-1.78,0 -2.75,-0.65 -3.06,-2.19 -0.38,-1.85 -2,-9.77 -2.42,-12.05 -0.23,-1.24 -0.75,-2.6 -1.89,-3.59 -1.14,-1 -2.78,-1.51 -4.72,-1.51 -0.06,-0.01 -0.13,-0.01 -0.19,0 -0.06,-0.01 -0.13,-0.01 -0.19,0z"/>
</symbol>
<symbol id="icon-add-to-cart" viewBox="0 0 32 32">
<title>add-to-cart</title>
<path d="M23.86 24.25c-1.66,0 -3.02,1.36 -3.02,3.02 0,1.67 1.36,3.02 3.02,3.02 1.67,0 3.03,-1.35 3.03,-3.02 0,-1.66 -1.36,-3.02 -3.03,-3.02z"/>
<path d="M12.99 24.25c-1.67,0 -3.03,1.36 -3.03,3.02 0,1.67 1.36,3.02 3.03,3.02 1.66,0 3.02,-1.35 3.02,-3.02 0,-1.66 -1.36,-3.02 -3.02,-3.02z"/>
<path d="M18.43 1.32c-0.68,0 -1.72,0.25 -1.97,0.61 -0.17,0.24 -0.41,5.44 -0.41,5.44l-2.72 0c-0.25,0 -0.45,0.12 -0.57,0.34 -0.12,0.22 -0.14,0.47 0,0.68 1.8,2.67 5.13,5.91 5.25,6 0.12,0.1 0.27,0.15 0.42,0.15 0.14,0 0.29,-0.05 0.41,-0.15 0.12,-0.09 3.41,-3.33 5.21,-6 0.14,-0.21 0.16,-0.46 0.04,-0.68 -0.11,-0.22 -0.32,-0.34 -0.56,-0.34l-2.72 0c0,0 -0.25,-5.2 -0.42,-5.44 -0.25,-0.36 -1.29,-0.61 -1.96,-0.61z"/>
<path d="M1.73 0.08c-1,0.1 -1.73,1 -1.62,2 0.1,1 1,1.73 2,1.62 1.33,0 1.93,0.32 2.3,0.65 0.37,0.32 0.62,0.78 0.76,1.51 0.45,2.41 2.04,10.27 2.41,12.12 0.65,3.16 3.56,5.06 6.62,5.06l9.66 0c1.18,0 1.57,-0.55 1.97,-0.94 0.4,-0.39 0.74,-0.82 1.09,-1.32 0.71,-1.01 1.44,-2.27 2.12,-3.52 1.36,-2.48 2.49,-4.94 2.49,-4.94 0.4,-0.6 0.41,-1.37 0.04,-1.98 -0.39,-0.6 -1.09,-0.93 -1.8,-0.83 -0.71,0.1 -1.29,0.6 -1.49,1.29 0,0 -1.12,2.37 -2.41,4.73 -0.65,1.17 -1.36,2.32 -1.93,3.13 -0.25,0.36 -0.46,0.6 -0.6,0.76l-9.14 0c-1.78,0 -2.75,-0.65 -3.06,-2.19 -0.38,-1.85 -2,-9.77 -2.42,-12.05 -0.23,-1.24 -0.75,-2.6 -1.89,-3.59 -1.14,-1 -2.78,-1.51 -4.72,-1.51 -0.06,-0.01 -0.13,-0.01 -0.19,0 -0.06,-0.01 -0.13,-0.01 -0.19,0z"/>
</symbol>
<symbol id="icon-remove-from-cart" viewBox="0 0 32 32">
<title>remove-from-cart</title>
<path d="M23.86 24.25c-1.66,0 -3.02,1.36 -3.02,3.02 0,1.67 1.36,3.02 3.02,3.02 1.67,0 3.03,-1.35 3.03,-3.02 0,-1.66 -1.36,-3.02 -3.03,-3.02z"/>
<path d="M12.99 24.25c-1.67,0 -3.03,1.36 -3.03,3.02 0,1.67 1.36,3.02 3.03,3.02 1.66,0 3.02,-1.35 3.02,-3.02 0,-1.66 -1.36,-3.02 -3.02,-3.02z"/>
<path d="M18.43 14.54c-0.68,0 -1.72,-0.25 -1.97,-0.6 -0.17,-0.24 -0.41,-5.44 -0.41,-5.44l-2.72 0c-0.25,0 -0.45,-0.12 -0.57,-0.34 -0.12,-0.22 -0.14,-0.47 0,-0.68 1.8,-2.68 5.13,-5.91 5.25,-6.01 0.12,-0.09 0.27,-0.15 0.42,-0.15 0.14,0 0.29,0.06 0.41,0.15 0.12,0.1 3.41,3.33 5.21,6.01 0.14,0.21 0.16,0.46 0.04,0.68 -0.11,0.22 -0.32,0.34 -0.56,0.34l-2.72 0c0,0 -0.25,5.2 -0.42,5.44 -0.25,0.35 -1.29,0.6 -1.96,0.6z"/>
<path d="M1.73 0.08c-1,0.1 -1.73,1 -1.62,2 0.1,1 1,1.73 2,1.62 1.33,0 1.93,0.32 2.3,0.65 0.37,0.32 0.62,0.78 0.76,1.51 0.45,2.41 2.04,10.27 2.41,12.12 0.65,3.16 3.56,5.06 6.62,5.06l9.66 0c1.18,0 1.57,-0.55 1.97,-0.94 0.4,-0.39 0.74,-0.82 1.09,-1.32 0.71,-1.01 1.44,-2.27 2.12,-3.52 1.36,-2.48 2.49,-4.94 2.49,-4.94 0.4,-0.6 0.41,-1.37 0.04,-1.98 -0.39,-0.6 -1.09,-0.93 -1.8,-0.83 -0.71,0.1 -1.29,0.6 -1.49,1.29 0,0 -1.12,2.37 -2.41,4.73 -0.65,1.17 -1.36,2.32 -1.93,3.13 -0.25,0.36 -0.46,0.6 -0.6,0.76l-9.14 0c-1.78,0 -2.75,-0.65 -3.06,-2.19 -0.38,-1.85 -2,-9.77 -2.42,-12.05 -0.23,-1.24 -0.75,-2.6 -1.89,-3.59 -1.14,-1 -2.78,-1.51 -4.72,-1.51 -0.06,-0.01 -0.13,-0.01 -0.19,0 -0.06,-0.01 -0.13,-0.01 -0.19,0z"/>
</symbol>
<symbol id="icon-printer" viewBox="0 0 32 32">
<title>printer</title>
<path d="M8 2h16v4h-16v-4z"></path>
<path d="M30 8h-28c-1.1 0-2 0.9-2 2v10c0 1.1 0.9 2 2 2h6v8h16v-8h6c1.1 0 2-0.9 2-2v-10c0-1.1-0.9-2-2-2zM4 14c-1.105 0-2-0.895-2-2s0.895-2 2-2 2 0.895 2 2-0.895 2-2 2zM22 28h-12v-10h12v10z"></path>
</symbol>
<symbol id="icon-trash" viewBox="0 0 32 32">
<title>trash</title>
<path d="M4 10v20c0 1.1 0.9 2 2 2h18c1.1 0 2-0.9 2-2v-20h-22zM10 28h-2v-14h2v14zM14 28h-2v-14h2v14zM18 28h-2v-14h2v14zM22 28h-2v-14h2v14z"></path>
<path d="M26.5 4h-6.5v-2.5c0-0.825-0.675-1.5-1.5-1.5h-7c-0.825 0-1.5 0.675-1.5 1.5v2.5h-6.5c-0.825 0-1.5 0.675-1.5 1.5v2.5h26v-2.5c0-0.825-0.675-1.5-1.5-1.5zM18 4h-6v-1.975h6v1.975z"></path>
</symbol>
<symbol id="icon-plus" viewBox="0 0 32 32">
<title>plus</title>
<path d="M31 12h-11v-11c0-0.552-0.448-1-1-1h-6c-0.552 0-1 0.448-1 1v11h-11c-0.552 0-1 0.448-1 1v6c0 0.552 0.448 1 1 1h11v11c0 0.552 0.448 1 1 1h6c0.552 0 1-0.448 1-1v-11h11c0.552 0 1-0.448 1-1v-6c0-0.552-0.448-1-1-1z"></path>
</symbol>
<symbol id="icon-minus" viewBox="0 0 32 32">
<title>minus</title>
<path d="M0 13v6c0 0.552 0.448 1 1 1h30c0.552 0 1-0.448 1-1v-6c0-0.552-0.448-1-1-1h-30c-0.552 0-1 0.448-1 1z"></path>
</symbol>
<symbol id="icon-cross" viewBox="0 0 32 32">
<title>cross</title>
<path d="M31.708 25.708c-0-0-0-0-0-0l-9.708-9.708 9.708-9.708c0-0 0-0 0-0 0.105-0.105 0.18-0.227 0.229-0.357 0.133-0.356 0.057-0.771-0.229-1.057l-4.586-4.586c-0.286-0.286-0.702-0.361-1.057-0.229-0.13 0.048-0.252 0.124-0.357 0.228 0 0-0 0-0 0l-9.708 9.708-9.708-9.708c-0-0-0-0-0-0-0.105-0.104-0.227-0.18-0.357-0.228-0.356-0.133-0.771-0.057-1.057 0.229l-4.586 4.586c-0.286 0.286-0.361 0.702-0.229 1.057 0.049 0.13 0.124 0.252 0.229 0.357 0 0 0 0 0 0l9.708 9.708-9.708 9.708c-0 0-0 0-0 0-0.104 0.105-0.18 0.227-0.229 0.357-0.133 0.355-0.057 0.771 0.229 1.057l4.586 4.586c0.286 0.286 0.702 0.361 1.057 0.229 0.13-0.049 0.252-0.124 0.357-0.229 0-0 0-0 0-0l9.708-9.708 9.708 9.708c0 0 0 0 0 0 0.105 0.105 0.227 0.18 0.357 0.229 0.356 0.133 0.771 0.057 1.057-0.229l4.586-4.586c0.286-0.286 0.362-0.702 0.229-1.057-0.049-0.13-0.124-0.252-0.229-0.357z"></path>
</symbol>
<symbol id="icon-arrow-up" viewBox="0 0 32 32">
<title>arrow-up</title>
<path d="M27.414 12.586l-10-10c-0.781-0.781-2.047-0.781-2.828 0l-10 10c-0.781 0.781-0.781 2.047 0 2.828s2.047 0.781 2.828 0l6.586-6.586v19.172c0 1.105 0.895 2 2 2s2-0.895 2-2v-19.172l6.586 6.586c0.39 0.39 0.902 0.586 1.414 0.586s1.024-0.195 1.414-0.586c0.781-0.781 0.781-2.047 0-2.828z"></path>
</symbol>
<symbol id="icon-arrow-down" viewBox="0 0 32 32">
<title>arrow-down</title>
<path d="M27.414 19.414l-10 10c-0.781 0.781-2.047 0.781-2.828 0l-10-10c-0.781-0.781-0.781-2.047 0-2.828s2.047-0.781 2.828 0l6.586 6.586v-19.172c0-1.105 0.895-2 2-2s2 0.895 2 2v19.172l6.586-6.586c0.39-0.39 0.902-0.586 1.414-0.586s1.024 0.195 1.414 0.586c0.781 0.781 0.781 2.047 0 2.828z"></path>
</symbol>
<symbol id="icon-chevron-left" viewBox="0 0 32 32">
<title>chevron-left</title>
<path d="M6.13 17.2l14.13 14.13c0.68,0.68 1.79,0.68 2.47,0l1.65 -1.65c0.68,-0.68 0.68,-1.78 0,-2.46l-11.2 -11.25 11.2 -11.26c0.68,-0.68 0.68,-1.78 0,-2.46l-1.65 -1.65c-0.68,-0.68 -1.79,-0.68 -2.47,0l-14.13 14.13c-0.68,0.68 -0.68,1.79 0,2.47l0 0z"/>
</symbol>
<symbol id="icon-chevron-right" viewBox="0 0 32 32">
<title>chevron-right</title>
<path d="M24.38 17.2l-14.13 14.13c-0.68,0.68 -1.79,0.68 -2.47,0l-1.65 -1.65c-0.68,-0.68 -0.68,-1.78 0,-2.46l11.2 -11.25 -11.2 -11.26c-0.68,-0.68 -0.68,-1.78 0,-2.46l1.65 -1.65c0.68,-0.68 1.79,-0.68 2.47,0l14.13 14.13c0.68,0.68 0.68,1.79 0,2.47l0 0z"/>
</symbol>
<symbol id="icon-mail" viewBox="0 0 32 32">
<title>mail</title>
<path d="M16 0c-8.837 0-16 7.163-16 16s7.163 16 16 16 16-7.163 16-16-7.163-16-16-16zM8 8h16c0.286 0 0.563 0.061 0.817 0.177l-8.817 10.286-8.817-10.287c0.254-0.116 0.531-0.177 0.817-0.177zM6 22v-12c0-0.042 0.002-0.084 0.004-0.125l5.864 6.842-5.8 5.8c-0.045-0.167-0.069-0.34-0.069-0.517zM24 24h-16c-0.177 0-0.35-0.024-0.517-0.069l5.691-5.691 2.826 3.297 2.826-3.297 5.691 5.691c-0.167 0.045-0.34 0.069-0.517 0.069zM26 22c0 0.177-0.024 0.35-0.069 0.517l-5.8-5.8 5.865-6.842c0.003 0.041 0.004 0.083 0.004 0.125v12z"></path>
</symbol>
<symbol id="icon-whatsapp" viewBox="0 0 32 32">
<title>whatsapp</title>
<path d="M27.281 4.65c-2.994-3-6.975-4.65-11.219-4.65-8.738 0-15.85 7.112-15.85 15.856 0 2.794 0.731 5.525 2.119 7.925l-2.25 8.219 8.406-2.206c2.319 1.262 4.925 1.931 7.575 1.931h0.006c0 0 0 0 0 0 8.738 0 15.856-7.113 15.856-15.856 0-4.238-1.65-8.219-4.644-11.219zM16.069 29.050v0c-2.369 0-4.688-0.637-6.713-1.837l-0.481-0.288-4.987 1.306 1.331-4.863-0.313-0.5c-1.325-2.094-2.019-4.519-2.019-7.012 0-7.269 5.912-13.181 13.188-13.181 3.519 0 6.831 1.375 9.319 3.862 2.488 2.494 3.856 5.8 3.856 9.325-0.006 7.275-5.919 13.188-13.181 13.188zM23.294 19.175c-0.394-0.2-2.344-1.156-2.706-1.288s-0.625-0.2-0.894 0.2c-0.262 0.394-1.025 1.288-1.256 1.556-0.231 0.262-0.462 0.3-0.856 0.1s-1.675-0.619-3.188-1.969c-1.175-1.050-1.975-2.35-2.206-2.744s-0.025-0.613 0.175-0.806c0.181-0.175 0.394-0.463 0.594-0.694s0.262-0.394 0.394-0.662c0.131-0.262 0.069-0.494-0.031-0.694s-0.894-2.15-1.219-2.944c-0.319-0.775-0.65-0.669-0.894-0.681-0.231-0.012-0.494-0.012-0.756-0.012s-0.694 0.1-1.056 0.494c-0.363 0.394-1.387 1.356-1.387 3.306s1.419 3.831 1.619 4.1c0.2 0.262 2.794 4.269 6.769 5.981 0.944 0.406 1.681 0.65 2.256 0.837 0.95 0.3 1.813 0.256 2.494 0.156 0.762-0.113 2.344-0.956 2.675-1.881s0.331-1.719 0.231-1.881c-0.094-0.175-0.356-0.275-0.756-0.475z"></path>
</symbol>
<symbol id="icon-vk" viewBox="0 0 32 32">
<title>vk</title>
<path d="M29 0h-26c-1.65 0-3 1.35-3 3v26c0 1.65 1.35 3 3 3h26c1.65 0 3-1.35 3-3v-26c0-1.65-1.35-3-3-3zM25.919 22.4l-2.925 0.044c0 0-0.631 0.125-1.456-0.444-1.094-0.75-2.125-2.706-2.931-2.45-0.813 0.256-0.788 2.012-0.788 2.012s0.006 0.375-0.181 0.575c-0.2 0.219-0.6 0.262-0.6 0.262h-1.306c0 0-2.888 0.175-5.431-2.475-2.775-2.887-5.225-8.619-5.225-8.619s-0.144-0.375 0.013-0.556c0.175-0.206 0.644-0.219 0.644-0.219l3.131-0.019c0 0 0.294 0.050 0.506 0.206 0.175 0.125 0.269 0.369 0.269 0.369s0.506 1.281 1.175 2.438c1.306 2.256 1.919 2.75 2.362 2.513 0.644-0.35 0.45-3.194 0.45-3.194s0.012-1.031-0.325-1.488c-0.262-0.356-0.756-0.463-0.969-0.488-0.175-0.025 0.113-0.431 0.488-0.619 0.563-0.275 1.556-0.294 2.731-0.281 0.913 0.006 1.181 0.069 1.538 0.15 1.081 0.262 0.712 1.269 0.712 3.681 0 0.775-0.137 1.863 0.419 2.219 0.238 0.156 0.825 0.025 2.294-2.469 0.694-1.181 1.219-2.569 1.219-2.569s0.113-0.25 0.288-0.356c0.181-0.106 0.425-0.075 0.425-0.075l3.294-0.019c0 0 0.988-0.119 1.15 0.331 0.169 0.469-0.369 1.563-1.712 3.356-2.206 2.944-2.456 2.669-0.619 4.369 1.75 1.625 2.113 2.419 2.175 2.519 0.712 1.2-0.813 1.294-0.813 1.294z"></path>
</symbol>
<symbol id="icon-github" viewBox="0 0 32 32">
<title>github</title>
<path d="M16 0.395c-8.836 0-16 7.163-16 16 0 7.069 4.585 13.067 10.942 15.182 0.8 0.148 1.094-0.347 1.094-0.77 0-0.381-0.015-1.642-0.022-2.979-4.452 0.968-5.391-1.888-5.391-1.888-0.728-1.849-1.776-2.341-1.776-2.341-1.452-0.993 0.11-0.973 0.11-0.973 1.606 0.113 2.452 1.649 2.452 1.649 1.427 2.446 3.743 1.739 4.656 1.33 0.143-1.034 0.558-1.74 1.016-2.14-3.554-0.404-7.29-1.777-7.29-7.907 0-1.747 0.625-3.174 1.649-4.295-0.166-0.403-0.714-2.030 0.155-4.234 0 0 1.344-0.43 4.401 1.64 1.276-0.355 2.645-0.532 4.005-0.539 1.359 0.006 2.729 0.184 4.008 0.539 3.054-2.070 4.395-1.64 4.395-1.64 0.871 2.204 0.323 3.831 0.157 4.234 1.026 1.12 1.647 2.548 1.647 4.295 0 6.145-3.743 7.498-7.306 7.895 0.574 0.497 1.085 1.47 1.085 2.963 0 2.141-0.019 3.864-0.019 4.391 0 0.426 0.288 0.925 1.099 0.768 6.354-2.118 10.933-8.113 10.933-15.18 0-8.837-7.164-16-16-16z"></path>
</symbol>
</defs>
</svg>
